<?xml version="1.0" ?><!DOCTYPE svg  PUBLIC '-//W3C//DTD SVG 1.1//EN'  'http://www.w3.org/Graphics/SVG/1.1/DTD/svg11.dtd'><svg width="32" height="32" viewBox="0 0 32 32" fill="none" xmlns="http://www.w3.org/2000/svg">
  <path fill-rule="evenodd" clip-rule="evenodd" d="M24.7397 9.91727V19.9465C24.7397 21.0543 23.8416 21.9524 22.7338 21.9524C22.1799 21.9524 21.7309 21.5033 21.7309 20.9494V14.27C21.7315 13.9643 21.6085 13.6713 21.3899 13.4576L17.8997 10.0075C17.2774 9.37513 16.4301 9.01459 15.5429 9.00461H11.7017C11.1478 9.00461 10.6987 8.55559 10.6987 8.00169V6.87841C10.6987 6.11327 11.0034 5.37962 11.5454 4.83953C12.0873 4.29943 12.822 3.99735 13.5872 4.00002H18.9127C19.6658 4.00761 20.3859 4.31006 20.9186 4.84247L23.9273 7.85125C24.4625 8.40421 24.7549 9.14788 24.7397 9.91727ZM19.8855 13.929L16.8768 10.9202C16.3453 10.386 15.6244 10.0832 14.8709 10.0777H9.54539C7.95407 10.0833 6.66698 11.3748 6.66699 12.9662V25.1116C6.66699 26.7068 7.96018 28 9.55541 28H17.8697C19.4531 27.9835 20.7281 26.6951 20.728 25.1116V15.9348C20.7358 15.1776 20.4479 14.4472 19.9257 13.8989L19.8855 13.929Z" fill="#777777"></path>
</svg>
